<?xml version="1.0" standalone="no"?>
<!DOCTYPE svg PUBLIC "-//W3C//DTD SVG 20010904//EN"
 "http://www.w3.org/TR/2001/REC-SVG-20010904/DTD/svg10.dtd">
<svg version="1.0" xmlns="http://www.w3.org/2000/svg"
 width="260.000000pt" height="260.000000pt" viewBox="0 0 260.000000 260.000000"
 preserveAspectRatio="xMidYMid meet">
<metadata>
Created by potrace 1.14, written by Peter Selinger 2001-2017
</metadata>
<g transform="translate(0.000000,260.000000) scale(0.100000,-0.100000)"
fill="#000000" stroke="none">
<path d="M1125 2590 c-560 -88 -984 -488 -1102 -1040 -28 -131 -25 -382 5
-520 59 -265 178 -476 374 -666 183 -177 390 -286 648 -341 131 -28 382 -25
520 5 265 59 476 178 666 374 177 183 286 390 341 648 28 131 25 382 -5 520
-113 508 -502 894 -1012 1005 -89 19 -350 28 -435 15z m-387 -1106 c68 -34
102 -89 109 -178 9 -110 -29 -187 -114 -230 -18 -9 -33 -21 -33 -26 0 -14 32
-28 79 -36 38 -6 40 -8 35 -33 -10 -39 -16 -42 -72 -31 -72 13 -110 35 -129
74 -11 24 -25 36 -46 40 -52 10 -97 46 -122 97 -33 65 -35 172 -4 236 50 104
184 143 297 87z m512 -24 l0 -40 -70 0 -70 0 0 -180 0 -180 -45 0 -45 0 0 180
0 180 -65 0 -65 0 0 40 0 40 180 0 180 0 0 -40z m236 -90 c32 -71 61 -126 64
-122 3 4 28 57 54 117 27 61 53 116 59 123 5 6 29 12 53 12 39 0 44 -3 44 -22
0 -13 4 -63 9 -113 5 -49 12 -138 16 -197 l7 -108 -45 0 -44 0 -6 83 c-4 45
-7 107 -7 138 0 31 -3 59 -7 62 -3 4 -29 -45 -56 -108 -48 -113 -50 -115 -82
-115 -30 0 -34 4 -62 68 -16 37 -38 88 -49 114 -10 27 -22 48 -25 48 -4 0 -10
-65 -14 -145 l-7 -145 -44 0 -44 0 0 38 c0 39 15 232 26 340 l6 62 48 0 48 0
58 -130z m694 90 l0 -40 -100 0 -100 0 0 -45 0 -45 90 0 90 0 0 -40 0 -40 -90
0 -90 0 0 -55 0 -55 105 0 105 0 0 -40 0 -40 -150 0 -150 0 0 220 0 220 145 0
145 0 0 -40z"/>
<path d="M574 1411 c-73 -44 -83 -174 -19 -238 27 -27 40 -33 78 -33 83 0 123
56 115 161 -4 56 -8 65 -41 95 -43 40 -85 44 -133 15z"/>
</g>
</svg>
